<svg xmlns="http://www.w3.org/2000/svg" xmlns:xlink="http://www.w3.org/1999/xlink" width="1080" zoomAndPan="magnify" viewBox="0 0 810 809.999993" height="1080" preserveAspectRatio="xMidYMid meet" version="1.0"><defs><filter x="0%" y="0%" width="100%" height="100%" id="f440b08d17"><feColorMatrix values="0 0 0 0 1 0 0 0 0 1 0 0 0 0 1 0 0 0 1 0" color-interpolation-filters="sRGB"/></filter><mask id="3ce36b07b4"><g filter="url(#f440b08d17)"><rect x="-81" width="972" fill="#000000" y="-80.999999" height="971.999992" fill-opacity="0.35"/></g></mask><clipPath id="4f74e380ae"><path d="M 1 0.808594 L 325 0.808594 L 325 324.808594 L 1 324.808594 Z M 1 0.808594 " clip-rule="nonzero"/></clipPath><clipPath id="d9c3667f95"><rect x="0" width="326" y="0" height="326"/></clipPath></defs><g mask="url(#3ce36b07b4)"><g transform="matrix(1, 0, 0, 1, 242, 220)"><g clip-path="url(#d9c3667f95)"><g clip-path="url(#4f74e380ae)"><path fill="#0077b6" d="M 302.910156 103.898438 L 221.910156 103.898438 L 221.910156 22.898438 C 221.910156 22.175781 221.875 21.453125 221.800781 20.734375 C 221.730469 20.015625 221.625 19.300781 221.484375 18.589844 C 221.34375 17.878906 221.167969 17.179688 220.957031 16.488281 C 220.746094 15.792969 220.503906 15.113281 220.226562 14.445312 C 219.949219 13.777344 219.640625 13.125 219.300781 12.484375 C 218.960938 11.847656 218.589844 11.226562 218.1875 10.625 C 217.785156 10.023438 217.355469 9.445312 216.894531 8.886719 C 216.4375 8.324219 215.949219 7.789062 215.4375 7.277344 C 214.925781 6.765625 214.390625 6.28125 213.832031 5.824219 C 213.273438 5.363281 212.691406 4.933594 212.089844 4.53125 C 211.488281 4.128906 210.871094 3.757812 210.230469 3.417969 C 209.59375 3.074219 208.941406 2.765625 208.273438 2.488281 C 207.605469 2.214844 206.921875 1.96875 206.230469 1.757812 C 205.539062 1.550781 204.835938 1.375 204.128906 1.234375 C 203.417969 1.089844 202.703125 0.984375 201.984375 0.914062 C 201.261719 0.84375 200.542969 0.808594 199.816406 0.808594 L 126.183594 0.808594 C 125.457031 0.808594 124.738281 0.84375 124.015625 0.914062 C 123.296875 0.984375 122.582031 1.089844 121.871094 1.234375 C 121.164062 1.375 120.460938 1.550781 119.769531 1.757812 C 119.078125 1.96875 118.394531 2.214844 117.726562 2.488281 C 117.058594 2.765625 116.40625 3.074219 115.769531 3.417969 C 115.128906 3.757812 114.511719 4.128906 113.910156 4.53125 C 113.308594 4.933594 112.726562 5.363281 112.167969 5.824219 C 111.609375 6.28125 111.074219 6.765625 110.5625 7.277344 C 110.050781 7.789062 109.5625 8.324219 109.105469 8.886719 C 108.644531 9.445312 108.214844 10.023438 107.8125 10.625 C 107.410156 11.226562 107.039062 11.847656 106.699219 12.484375 C 106.359375 13.125 106.050781 13.777344 105.773438 14.445312 C 105.496094 15.113281 105.253906 15.792969 105.042969 16.488281 C 104.832031 17.179688 104.65625 17.878906 104.515625 18.589844 C 104.375 19.300781 104.269531 20.015625 104.199219 20.734375 C 104.125 21.453125 104.089844 22.175781 104.089844 22.898438 L 104.089844 103.898438 L 23.089844 103.898438 C 22.367188 103.898438 21.644531 103.933594 20.925781 104.003906 C 20.207031 104.078125 19.492188 104.183594 18.78125 104.324219 C 18.070312 104.464844 17.371094 104.640625 16.679688 104.851562 C 15.984375 105.058594 15.304688 105.304688 14.636719 105.582031 C 13.96875 105.859375 13.316406 106.167969 12.675781 106.507812 C 12.039062 106.847656 11.417969 107.21875 10.816406 107.621094 C 10.214844 108.023438 9.636719 108.453125 9.078125 108.914062 C 8.515625 109.371094 7.980469 109.859375 7.46875 110.371094 C 6.957031 110.882812 6.472656 111.417969 6.015625 111.976562 C 5.554688 112.535156 5.125 113.117188 4.722656 113.71875 C 4.320312 114.320312 3.949219 114.9375 3.609375 115.578125 C 3.265625 116.214844 2.957031 116.867188 2.679688 117.535156 C 2.40625 118.203125 2.160156 118.886719 1.953125 119.578125 C 1.742188 120.269531 1.566406 120.972656 1.425781 121.679688 C 1.285156 122.390625 1.175781 123.105469 1.105469 123.824219 C 1.035156 124.542969 1 125.265625 1 125.988281 L 1 199.625 C 1 200.351562 1.035156 201.070312 1.105469 201.792969 C 1.175781 202.511719 1.285156 203.226562 1.425781 203.9375 C 1.566406 204.644531 1.742188 205.347656 1.953125 206.039062 C 2.160156 206.730469 2.40625 207.410156 2.679688 208.082031 C 2.957031 208.75 3.265625 209.402344 3.609375 210.039062 C 3.949219 210.679688 4.320312 211.296875 4.722656 211.898438 C 5.125 212.5 5.554688 213.082031 6.015625 213.640625 C 6.472656 214.199219 6.957031 214.734375 7.46875 215.246094 C 7.980469 215.757812 8.515625 216.242188 9.078125 216.703125 C 9.636719 217.160156 10.214844 217.59375 10.816406 217.996094 C 11.417969 218.394531 12.039062 218.769531 12.675781 219.109375 C 13.316406 219.449219 13.96875 219.757812 14.636719 220.035156 C 15.304688 220.3125 15.984375 220.554688 16.679688 220.765625 C 17.371094 220.976562 18.070312 221.152344 18.78125 221.292969 C 19.492188 221.433594 20.207031 221.539062 20.925781 221.609375 C 21.644531 221.683594 22.367188 221.71875 23.089844 221.71875 L 104.089844 221.71875 L 104.089844 302.71875 C 104.089844 303.441406 104.125 304.164062 104.195312 304.882812 C 104.269531 305.601562 104.375 306.316406 104.515625 307.027344 C 104.65625 307.738281 104.832031 308.4375 105.042969 309.128906 C 105.253906 309.824219 105.496094 310.503906 105.773438 311.171875 C 106.050781 311.839844 106.359375 312.492188 106.699219 313.132812 C 107.039062 313.769531 107.410156 314.390625 107.8125 314.992188 C 108.214844 315.59375 108.644531 316.171875 109.105469 316.730469 C 109.5625 317.289062 110.050781 317.828125 110.5625 318.339844 C 111.074219 318.847656 111.609375 319.335938 112.167969 319.792969 C 112.726562 320.253906 113.308594 320.683594 113.910156 321.085938 C 114.511719 321.488281 115.128906 321.859375 115.769531 322.199219 C 116.40625 322.539062 117.058594 322.851562 117.726562 323.125 C 118.394531 323.402344 119.078125 323.648438 119.769531 323.855469 C 120.460938 324.066406 121.164062 324.242188 121.871094 324.382812 C 122.582031 324.523438 123.296875 324.632812 124.015625 324.703125 C 124.738281 324.773438 125.457031 324.808594 126.183594 324.808594 L 199.816406 324.808594 C 200.542969 324.808594 201.261719 324.773438 201.984375 324.703125 C 202.703125 324.632812 203.417969 324.523438 204.128906 324.382812 C 204.835938 324.242188 205.539062 324.066406 206.230469 323.855469 C 206.921875 323.648438 207.605469 323.402344 208.273438 323.125 C 208.941406 322.851562 209.59375 322.539062 210.230469 322.199219 C 210.871094 321.859375 211.488281 321.488281 212.089844 321.085938 C 212.691406 320.683594 213.273438 320.253906 213.832031 319.792969 C 214.390625 319.335938 214.925781 318.847656 215.4375 318.339844 C 215.949219 317.828125 216.4375 317.289062 216.894531 316.730469 C 217.355469 316.171875 217.785156 315.59375 218.1875 314.992188 C 218.589844 314.390625 218.960938 313.769531 219.300781 313.132812 C 219.640625 312.492188 219.949219 311.839844 220.226562 311.171875 C 220.503906 310.503906 220.746094 309.824219 220.957031 309.128906 C 221.167969 308.4375 221.34375 307.738281 221.484375 307.027344 C 221.625 306.316406 221.730469 305.601562 221.800781 304.882812 C 221.875 304.164062 221.910156 303.441406 221.910156 302.71875 L 221.910156 221.71875 L 302.910156 221.71875 C 303.632812 221.71875 304.355469 221.683594 305.074219 221.609375 C 305.792969 221.539062 306.507812 221.433594 307.21875 221.292969 C 307.929688 221.152344 308.628906 220.976562 309.320312 220.765625 C 310.015625 220.554688 310.695312 220.3125 311.363281 220.035156 C 312.03125 219.757812 312.683594 219.449219 313.324219 219.109375 C 313.960938 218.769531 314.582031 218.394531 315.183594 217.996094 C 315.785156 217.59375 316.363281 217.160156 316.921875 216.703125 C 317.484375 216.242188 318.019531 215.757812 318.53125 215.246094 C 319.042969 214.734375 319.527344 214.199219 319.984375 213.640625 C 320.445312 213.082031 320.875 212.5 321.277344 211.898438 C 321.679688 211.296875 322.050781 210.679688 322.390625 210.039062 C 322.734375 209.402344 323.042969 208.75 323.320312 208.082031 C 323.59375 207.410156 323.839844 206.730469 324.046875 206.039062 C 324.257812 205.347656 324.433594 204.644531 324.574219 203.9375 C 324.714844 203.226562 324.824219 202.511719 324.894531 201.792969 C 324.964844 201.070312 325 200.351562 325 199.625 L 325 125.988281 C 325 125.265625 324.964844 124.542969 324.894531 123.824219 C 324.824219 123.105469 324.714844 122.390625 324.574219 121.679688 C 324.433594 120.972656 324.257812 120.269531 324.046875 119.578125 C 323.839844 118.886719 323.59375 118.203125 323.320312 117.535156 C 323.042969 116.867188 322.734375 116.214844 322.390625 115.578125 C 322.050781 114.9375 321.679688 114.320312 321.277344 113.71875 C 320.875 113.117188 320.445312 112.535156 319.984375 111.976562 C 319.527344 111.417969 319.042969 110.882812 318.53125 110.371094 C 318.019531 109.859375 317.484375 109.371094 316.921875 108.914062 C 316.363281 108.453125 315.785156 108.023438 315.183594 107.621094 C 314.582031 107.21875 313.960938 106.847656 313.324219 106.507812 C 312.683594 106.167969 312.03125 105.859375 311.363281 105.582031 C 310.695312 105.304688 310.015625 105.058594 309.320312 104.851562 C 308.628906 104.640625 307.929688 104.464844 307.21875 104.324219 C 306.507812 104.183594 305.792969 104.078125 305.074219 104.003906 C 304.355469 103.933594 303.632812 103.898438 302.910156 103.898438 Z M 302.910156 103.898438 " fill-opacity="1" fill-rule="nonzero"/></g></g></g></g></svg>